<?xml version="1.0" standalone="no"?>
<!DOCTYPE svg PUBLIC "-//W3C//DTD SVG 20010904//EN"
 "http://www.w3.org/TR/2001/REC-SVG-20010904/DTD/svg10.dtd">
<svg version="1.0" xmlns="http://www.w3.org/2000/svg"
 width="1080.000000pt" height="1080.000000pt" viewBox="0 0 1080.000000 1080.000000"
 preserveAspectRatio="xMidYMid meet">
<metadata>
Created by potrace 1.14, written by Peter Selinger 2001-2017
</metadata>
<g transform="translate(0.000000,1080.000000) scale(0.100000,-0.100000)"
fill="#000000" stroke="none">
<path d="M0 5400 l0 -5400 5400 0 5400 0 0 5400 0 5400 -5400 0 -5400 0 0
-5400z m5608 4816 c330 -91 563 -396 564 -740 1 -127 -19 -213 -77 -331 -100
-205 -266 -343 -491 -407 -111 -31 -287 -31 -396 0 -278 79 -479 283 -548 556
-27 106 -27 265 -1 368 72 281 306 504 591 564 80 17 282 11 358 -10z m-1220
-812 c26 -28 32 -42 32 -78 0 -75 -28 -98 -183 -146 -190 -60 -388 -140 -574
-231 -89 -43 -173 -79 -186 -79 -31 0 -88 39 -104 70 -19 37 -16 78 8 116 37
60 412 232 734 337 77 25 149 48 160 50 39 9 80 -5 113 -39z m2373 -33 c202
-69 338 -125 529 -221 154 -77 194 -106 210 -154 22 -69 -39 -156 -110 -156
-15 0 -92 33 -172 74 -186 97 -346 165 -540 231 -186 64 -193 67 -213 105 -41
79 15 179 101 180 12 0 99 -27 195 -59z m-4021 -351 c209 -60 378 -201 475
-395 58 -118 77 -202 77 -340 -1 -138 -24 -232 -89 -358 -38 -75 -64 -109
-138 -182 -111 -111 -204 -166 -341 -200 -302 -77 -605 23 -793 260 -114 143
-165 291 -165 475 0 128 17 213 65 318 81 181 253 340 441 408 131 48 329 54
468 14z m5750 0 c144 -41 283 -132 386 -252 65 -76 140 -234 160 -338 50 -257
-37 -526 -228 -707 -142 -134 -318 -203 -516 -203 -283 0 -524 137 -668 380
-66 112 -95 212 -101 351 -11 239 66 431 236 592 108 102 245 170 398 197 78
14 249 4 333 -20z m-2713 -1224 c422 -73 770 -224 1108 -479 96 -73 340 -314
419 -414 246 -314 415 -695 487 -1098 31 -174 38 -511 14 -695 -68 -536 -309
-1025 -695 -1410 -334 -335 -733 -554 -1189 -655 -477 -105 -1012 -54 -1468
141 -560 239 -1028 707 -1267 1268 -126 294 -183 555 -193 886 -20 646 218
1266 665 1732 308 321 728 568 1138 672 105 26 292 63 359 70 98 10 533 -2
622 -18z m-3831 -307 c28 -26 45 -78 36 -111 -3 -12 -36 -81 -73 -152 -86
-168 -163 -350 -230 -546 -29 -85 -61 -165 -72 -178 -32 -35 -85 -47 -130 -29
-40 17 -77 68 -77 107 0 33 83 281 144 430 57 139 198 427 228 465 11 15 30
31 42 36 35 15 105 4 132 -22z m7100 -44 c29 -19 158 -272 233 -459 65 -158
151 -421 151 -459 0 -36 -23 -81 -52 -101 -13 -9 -43 -16 -71 -16 -74 0 -94
26 -146 190 -59 187 -141 389 -227 562 -78 155 -87 194 -60 247 30 57 114 74
172 36z m-7609 -1276 c246 -34 467 -191 576 -410 67 -134 82 -197 82 -359 0
-114 -4 -147 -23 -210 -66 -210 -207 -377 -397 -471 -375 -184 -822 -38 -1014
331 -203 389 -50 852 344 1047 75 38 118 52 209 68 91 17 127 17 223 4z m8137
1 c306 -45 554 -261 638 -557 29 -103 32 -305 5 -403 -44 -162 -151 -318 -285
-418 -91 -68 -171 -105 -284 -134 -117 -29 -288 -22 -403 16 -167 57 -290 147
-387 281 -192 266 -195 627 -9 892 164 233 454 362 725 323z m-8018 -1746 c19
-9 39 -25 44 -35 6 -10 34 -92 64 -181 62 -192 131 -357 227 -552 80 -161 83
-185 27 -243 -27 -28 -39 -33 -80 -33 -38 0 -54 5 -77 28 -76 70 -342 703
-376 892 -8 47 20 100 65 122 43 22 63 22 106 2z m7790 -60 c40 -19 64 -59 64
-106 0 -79 -142 -449 -273 -709 -96 -193 -126 -229 -184 -229 -39 0 -93 30
-108 61 -28 52 -19 89 55 231 85 164 171 366 235 553 57 169 58 171 98 195 39
24 68 25 113 4z m-6641 -1090 c141 -28 316 -137 415 -257 202 -247 230 -607
69 -880 -54 -92 -174 -212 -266 -266 -141 -84 -343 -125 -493 -102 -312 48
-555 262 -642 567 -32 112 -32 286 1 399 83 294 328 507 636 554 70 11 182 5
280 -15z m5783 -5 c148 -37 300 -139 402 -267 192 -243 212 -592 49 -869 -49
-82 -180 -212 -266 -262 -181 -107 -412 -135 -614 -75 -187 56 -362 200 -452
373 -56 107 -78 192 -84 322 -11 238 66 431 236 592 198 186 463 254 729 186z
m-2863 -1199 c244 -77 432 -259 510 -493 139 -418 -100 -857 -532 -979 -112
-31 -287 -31 -397 0 -257 73 -446 254 -532 507 -36 108 -45 276 -19 391 65
295 300 528 594 590 97 20 286 12 376 -16z m-1995 -159 c182 -91 418 -188 570
-235 47 -15 96 -32 108 -38 32 -17 52 -58 52 -109 0 -33 -6 -47 -34 -75 -49
-49 -90 -46 -278 20 -211 74 -304 113 -516 218 -146 72 -187 96 -203 122 -21
34 -25 96 -8 127 15 28 69 59 102 59 16 0 108 -39 207 -89z m3792 18 c33 -39
37 -95 11 -141 -21 -35 -231 -144 -438 -228 -178 -72 -442 -160 -482 -160 -76
0 -130 59 -120 132 8 61 45 90 152 123 207 63 477 173 670 273 69 36 87 42
130 38 41 -3 54 -9 77 -37z"/>
<path d="M5272 9980 c-98 -26 -163 -63 -236 -135 -255 -250 -187 -673 134
-834 263 -131 574 -29 707 233 38 74 53 140 53 231 0 145 -52 270 -154 370
-138 135 -319 183 -504 135z"/>
<path d="M2410 8795 c-211 -58 -354 -211 -397 -423 -29 -139 7 -284 100 -408
94 -124 224 -193 382 -201 161 -9 293 42 406 157 104 106 151 222 150 375 -1
169 -77 314 -220 420 -110 80 -294 115 -421 80z"/>
<path d="M8165 8796 c-99 -24 -184 -72 -255 -145 -327 -333 -87 -891 383 -891
279 0 518 242 517 523 -1 329 -329 590 -645 513z"/>
<path d="M5165 7568 c-407 -46 -805 -213 -1130 -475 -419 -338 -698 -826 -782
-1373 -24 -157 -24 -471 1 -629 131 -849 735 -1540 1553 -1775 835 -240 1743
44 2279 713 385 479 548 1038 479 1636 -28 241 -93 460 -205 692 -215 442
-571 796 -1015 1009 -226 109 -460 176 -710 204 -107 12 -358 11 -470 -2z"/>
<path d="M1190 5911 c-93 -30 -159 -69 -223 -134 -235 -235 -193 -627 87 -812
113 -76 277 -104 406 -70 236 61 400 273 400 513 -1 236 -175 459 -400 511
-71 16 -208 12 -270 -8z"/>
<path d="M9360 5923 c-45 -8 -172 -72 -216 -109 -103 -83 -180 -236 -190 -373
-19 -247 157 -489 397 -546 264 -62 520 77 618 335 35 92 36 246 3 342 -59
170 -195 298 -367 344 -47 13 -190 17 -245 7z"/>
<path d="M2454 3050 c-288 -43 -488 -309 -445 -591 22 -141 110 -283 223 -360
179 -122 406 -126 585 -10 106 69 196 196 223 316 18 79 13 202 -10 276 -37
123 -150 258 -259 314 -95 48 -221 70 -317 55z"/>
<path d="M8191 3045 c-106 -19 -193 -66 -272 -144 -209 -208 -213 -534 -9
-741 103 -105 223 -154 375 -153 204 0 382 113 470 298 72 153 72 307 -1 461
-29 61 -116 161 -178 203 -100 69 -255 99 -385 76z"/>
<path d="M5305 1850 c-112 -23 -236 -94 -304 -176 -45 -55 -97 -163 -112 -231
-15 -77 -7 -203 20 -278 65 -183 228 -316 425 -345 73 -11 97 -11 163 2 249
50 418 240 431 484 8 166 -35 283 -147 394 -130 129 -305 184 -476 150z"/>
</g>
</svg>
